<?xml version="1.0" encoding="utf-8"?>
<!-- Generator: Adobe Illustrator 25.2.1, SVG Export Plug-In . SVG Version: 6.00 Build 0)  -->
<svg version="1.1" id="Layer_1" xmlns="http://www.w3.org/2000/svg" xmlns:xlink="http://www.w3.org/1999/xlink" x="0px" y="0px"
	 viewBox="0 0 40 32" style="enable-background:new 0 0 40 32;" xml:space="preserve">
<style type="text/css">
	.st0{fill:#6FCCDD;}
	.st1{fill:#0071BC;}
	.st2{fill:#29ABE2;}
</style>
<rect x="2.2" y="25.1" class="st0" width="5.6" height="5.6"/>
<rect x="9.7" y="25.1" class="st0" width="5.6" height="5.6"/>
<rect x="17.2" y="25.1" class="st0" width="5.6" height="5.6"/>
<rect x="24.7" y="25.1" class="st0" width="5.6" height="5.6"/>
<rect x="32.2" y="25.1" class="st1" width="5.6" height="5.6"/>
<rect x="2.2" y="17" class="st1" width="5.6" height="5.6"/>
<rect x="9.7" y="17" class="st2" width="5.6" height="5.6"/>
<rect x="17.2" y="17" class="st2" width="5.6" height="5.6"/>
<rect x="24.7" y="17" class="st1" width="5.6" height="5.6"/>
<rect x="32.2" y="17" class="st0" width="5.6" height="5.6"/>
<rect x="2.2" y="9.4" class="st0" width="5.6" height="5.6"/>
<rect x="9.7" y="9.4" class="st1" width="5.6" height="5.6"/>
<rect x="17.2" y="9.4" class="st2" width="5.6" height="5.6"/>
<rect x="24.7" y="9.4" class="st0" width="5.6" height="5.6"/>
<rect x="32.2" y="9.4" class="st1" width="5.6" height="5.6"/>
<rect x="2.2" y="1.3" class="st1" width="5.6" height="5.6"/>
<rect x="9.7" y="1.3" class="st0" width="5.6" height="5.6"/>
<rect x="17.2" y="1.3" class="st1" width="5.6" height="5.6"/>
<rect x="24.7" y="1.3" class="st0" width="5.6" height="5.6"/>
<rect x="32.2" y="1.3" class="st2" width="5.6" height="5.6"/>
</svg>
